# xmcd
#
# Track frame offsets: 
#        150
#        11217
#        25863
#        37113
#        47072
#        60090
#        72904
#        85232
#        100190
#        111549
#
# Disc length: 1630 seconds
#
# Revision: 0
# Processed by: cddbd v1.5.2PL0 Copyright (c) Steve Scherf et al.
# Submitted via: ExactAudioCopy v1.0b3
#
DISCID=81065c0a
DTITLE=Luis Márquez y su Orquestra - Bailando El Charleston
DYEAR=1974
DGENRE=Big Band
TTITLE0=Bailando el Charleston
TTITLE1=Mi Querido Capitán
TTITLE2=Chaparrita de Ojos Azules (Five Foot Two, Eyes of Blue)
TTITLE3=Sí Señor, Esa Es Mi Chica (Yes Sir, That's My Baby)
TTITLE4=Las Pelonas
TTITLE5=Perico el Vacilador
TTITLE6=Chicago
TTITLE7=La Escoba
TTITLE8=Alexander's Ragtime Band
TTITLE9=Muñequita de Trapo
EXTD=
EXTT0=
EXTT1=
EXTT2=
EXTT3=
EXTT4=
EXTT5=
EXTT6=
EXTT7=
EXTT8=
EXTT9=
PLAYORDER=
